<svg width="14" height="15" viewBox="0 0 14 15" fill="none" xmlns="http://www.w3.org/2000/svg">
<rect width="14" height="14" transform="translate(0 0.5)" fill="black"/>
<path fill-rule="evenodd" clip-rule="evenodd" d="M13.0345 14.5H0.965517C0.432069 14.5 0 14.0679 0 13.5345V1.46552C0 0.932069 0.432069 0.5 0.965517 0.5H13.0345C13.5679 0.5 14 0.932069 14 1.46552V13.5345C14 14.0679 13.5679 14.5 13.0345 14.5Z" fill="black"/>
<path fill-rule="evenodd" clip-rule="evenodd" d="M11.8276 2.91379V5.32758H9.65517C9.38965 5.32758 9.17241 5.54482 9.17241 5.81034V7.25862H11.5862V9.67241H9.17241V14.5H6.75862V9.67241H4.82758V7.25862H6.75862V5.81034C6.75862 4.28965 7.92689 3.03689 9.41379 2.91379H11.8276Z" fill="white"/>
</svg>
