<svg width="14" height="15" viewBox="0 0 14 15" fill="none" xmlns="http://www.w3.org/2000/svg">
<path d="M7.33333 0.833344C3.65333 0.833344 0.666664 3.82001 0.666664 7.50001C0.666664 11.18 3.65333 14.1667 7.33333 14.1667C11.0133 14.1667 14 11.18 14 7.50001C14 3.82001 11.0133 0.833344 7.33333 0.833344ZM8 12.1667H6.66666V10.8333H8V12.1667ZM9.38 7.00001L8.78 7.61334C8.3 8.10001 8 8.50001 8 9.50001H6.66666V9.16668C6.66666 8.43334 6.96666 7.76668 7.44666 7.28001L8.27333 6.44001C8.52 6.20001 8.66666 5.86668 8.66666 5.50001C8.66666 4.76668 8.06666 4.16668 7.33333 4.16668C6.6 4.16668 6 4.76668 6 5.50001H4.66666C4.66666 4.02668 5.86 2.83334 7.33333 2.83334C8.80666 2.83334 10 4.02668 10 5.50001C10 6.08668 9.76 6.62001 9.38 7.00001Z" fill="black"/>
</svg>
