<svg width="1112" height="396" xmlns="http://www.w3.org/2000/svg"><g fill="none" fill-rule="evenodd"><path d="M541.3 28.7 435.7 71.5l-35 14.1v47.7h5.7c11.9 0 11.5.6 11.9-18.9l.4-17.2L506 61.9c48-19.4 88.4-35.6 89.7-36 2.2-.7 2.3 1 2.3 24.5v25.3l25.7.8c14 .4 46.4 1.2 71.8 1.6l46.2.8.6 26.6c.2 14.5.8 26.8 1.3 27.2.4.4 4.4.4 9-.2l8-.9-.7-34.8-1.1-35s-24.4-.6-54.1-1c-29.8-.5-62-1.2-71.6-1.6l-17.8-.8V29.2c0-22.5-.4-29.2-1.6-29.2-.9.1-33.4 13-72.4 28.7ZM400.7 304.9v15.8l4.4 1.5c2.2.8 59.8 17.6 127.8 37.3l123.6 36 52-30.2 52.2-30.2v-46.5l-6.2 1c-3.4.3-7.3.7-8.6.7-2.3 0-2.6 1.6-2.8 17.5l-.4 17.5-43.4 25.2a563 563 0 0 1-46 25.2c-1.4 0-54.8-15.2-118.6-33.9l-116-33.7-.4-9.6-.4-9.5h-17.2v15.9ZM18.8 255v-32.5h10.9c11 0 20-2.6 26.6-7.8 6.6-5.2 10-13 10-23.3 0-9.9-3.3-17.3-10-22.3-6.6-5-15.9-7.4-27.8-7.4H.9V255h17.9Zm9.5-45.9h-9.5v-34.3h9.5c13 0 19.3 5.5 19.3 16.6 0 6.5-1.6 11-4.8 13.7-3.3 2.7-8 4-14.5 4Zm88.2 48c8.3 0 15.5-2 21.6-5.9a37.7 37.7 0 0 0 14.2-16.7c3.3-7.3 5-16 5-26.2 0-10.3-1.7-19-5-26.3a36.5 36.5 0 0 0-35.8-22.3c-8.3 0-15.5 2-21.7 5.8-6.1 3.9-10.9 9.5-14.2 16.8-3.3 7.3-5 16-5 26.1a63 63 0 0 0 5 26.3 36.9 36.9 0 0 0 35.9 22.3Zm0-13.7c-14.8 0-22.1-11.7-22.1-35 0-12.1 1.8-21 5.6-26.6 3.8-5.7 9.3-8.5 16.5-8.5 7.2 0 12.7 2.8 16.4 8.4a49 49 0 0 1 5.6 26.6c0 12.2-1.9 21.1-5.6 26.7a18.5 18.5 0 0 1-16.4 8.4ZM227.2 255l2-14.6h-37.4v-78.7H174V255h53.2Zm40 2c7.4 0 13.7-1.2 19-3.6a26.5 26.5 0 0 0 16.5-25c0-8.2-2.4-14.4-7-18.7A54.5 54.5 0 0 0 275 199a82 82 0 0 1-12-4.5 14.4 14.4 0 0 1-5.6-4.3c-1-1.5-1.6-3.5-1.6-5.8 0-3.5 1.3-6.2 4-8.2 2.7-2 6.1-2.9 10.5-2.9a30.8 30.8 0 0 1 20.9 8l8.8-10.1a43.6 43.6 0 0 0-13.7-8.7 47.2 47.2 0 0 0-33.5.4 26.7 26.7 0 0 0-11.3 9 23 23 0 0 0-4 13.6c0 7 2.2 12.7 6.6 17 4.4 4.3 11.5 8 21.4 11 5 1.6 8.8 3 11.4 4.4a14 14 0 0 1 5.5 4.8c1 1.7 1.6 4 1.6 6.7 0 4.4-1.5 7.8-4.7 10.2a19.8 19.8 0 0 1-12.4 3.7 33.7 33.7 0 0 1-24-9.4l-9.2 10.3c4 4 8.9 7 14.5 9.4 5.6 2.3 12 3.4 19 3.4Zm68.5-2v-93.3H318V255h17.8Zm55 0-34.8-51 32.2-42.3h-19.3l-32.3 43.5 33 49.8h21.2Zm27.8 0v-93.3h-17.8V255h17.8Zm73.4 0v-38.9h28.8V203h-28.8v-28H525l1.9-13.2H474V255H492Zm66 0v-37.4h11.4l20.6 37.4h20.6L586 214.4a32.1 32.1 0 0 0 14.3-9.8c3.1-4 4.6-9.2 4.6-15.5 0-18.3-12.3-27.4-37-27.4h-27.8V255H558Zm11.1-50.2h-11v-30.1h9.5c6.5 0 11.3 1.1 14.3 3.4s4.5 6 4.5 11c0 5.5-1.5 9.5-4.4 12-3 2.4-7.2 3.7-12.9 3.7Zm89.4 52.2c8.3 0 15.5-2 21.6-5.8a37.7 37.7 0 0 0 14.2-16.7c3.3-7.3 5-16 5-26.2 0-10.3-1.7-19-5-26.3a36.5 36.5 0 0 0-35.8-22.3c-8.3 0-15.5 2-21.7 5.8-6.1 3.9-10.9 9.5-14.2 16.8-3.4 7.3-5 16-5 26.1a63 63 0 0 0 5 26.3 36.9 36.9 0 0 0 35.9 22.3Zm0-13.6c-14.8 0-22.2-11.7-22.2-35 0-12.1 2-21 5.7-26.6 3.8-5.7 9.3-8.5 16.5-8.5 7.2 0 12.7 2.8 16.4 8.4a49 49 0 0 1 5.6 26.6c0 12.2-1.9 21.1-5.6 26.7a18.5 18.5 0 0 1-16.4 8.4ZM732 255v-38a263 263 0 0 0-2.4-37.5l32 75.5h23v-93.3h-16.2v43.8a193 193 0 0 0 2.5 31.8l-32.6-75.6H716V255h16.2Zm108.3 0v-79.1h24.3l1.9-14.2h-69.3V176h25.1V255h18Zm92.4 0v-13.4H896v-27.4h30V201h-30v-26h34.4l1.9-13.3h-54.1V255h54.6Zm33.1 0v-38a263 263 0 0 0-2.4-37.5l32 75.5h23v-93.3h-16.1v43.8a193 193 0 0 0 2.4 31.8l-32.5-75.6h-22.6V255H966Zm100 0c13 0 23.9-3.5 32.4-10.6 8.6-7 12.9-19.2 12.9-36.5 0-17.7-4.4-29.8-13-36.3a56.2 56.2 0 0 0-34.8-9.9h-23V255h25.4Zm1.1-13.4h-8.7v-66.5h8.2c5.2 0 9.7.8 13.4 2.5 3.8 1.8 6.8 5 9 9.8a48.7 48.7 0 0 1 3.5 20.5c0 12.7-2.2 21.5-6.7 26.4a24 24 0 0 1-18.7 7.3Z" fill="#161326" fill-rule="nonzero"/><path d="M105.4 333.8c0-3 .5-5.7 1.5-8s2.1-4.2 3.7-5.8a16.5 16.5 0 0 1 11.5-4.7c4.9 0 8.8 1.5 11.6 4.6 2.9 3 4.3 7.4 4.3 13.2v1.9l-.2 1.8h-22.3c.2 2 1.2 3.7 2.9 4.8 1.6 1.2 3.9 1.8 6.7 1.8a28.5 28.5 0 0 0 9.5-1.7l1.4 8-2.1.7a27.4 27.4 0 0 1-6.4 1.2l-3.7.2c-3.2 0-5.9-.5-8.2-1.4a15 15 0 0 1-9.1-9.5c-.7-2.2-1-4.6-1-7Zm23.1-3.7c0-.8-.2-1.7-.4-2.4-.2-.8-.6-1.5-1.1-2.2a6 6 0 0 0-2-1.5c-.8-.4-1.8-.6-2.8-.6-1.1 0-2 .2-2.8.6-.8.3-1.5.9-2 1.5-.6.6-1 1.3-1.2 2.1l-.7 2.5h13Zm-29 3.5c0 2.7-.3 5-1 7.3-.6 2-1.5 4-2.9 5.6a13.1 13.1 0 0 1-4.7 3.7c-1.9 1-4 1.3-6.5 1.3s-5-.5-7.3-1.5v13h-9.8v-45.5a38.7 38.7 0 0 1 6.6-1.4 69.2 69.2 0 0 1 7.6-.6c2.8 0 5.4.4 7.6 1.3 2.1.7 4 2 5.7 3.6 1.5 1.6 2.8 3.5 3.5 5.7.8 2.2 1.2 4.7 1.2 7.5Zm-10 .2c0-3-.7-5.4-2-7.2-1.4-1.9-3.4-2.8-6.1-2.8-1.4 0-2.9.1-4.3.4v17.7c.8.4 1.6.8 2.4 1 1 .2 2 .4 3 .4 4.7 0 7-3.2 7-9.5Zm-27.4-17.5A302.7 302.7 0 0 1 48.8 352a38 38 0 0 1-2.8 5c-.8 1.3-1.8 2.5-3 3.5-1.1.9-2.4 1.5-3.7 2a19.8 19.8 0 0 1-12.3-.8l1.7-7.9a16.7 16.7 0 0 0 5.2 1c1.7 0 3.1-.5 4-1.4 1-1 1.8-2.3 2.4-4a196.6 196.6 0 0 1-13-33.1h10.4a159.8 159.8 0 0 0 5.5 17.5c.6 2 1.3 3.7 2 5.3a146.4 146.4 0 0 0 3.5-11.2l3.2-11.6h10.2ZM1 307.6l9.8-1.5v10.2h11.8v8.1H10.8v12.2c0 2 .4 3.7 1.1 5 .7 1.2 2.2 1.8 4.4 1.8 2.1 0 4.3-.4 6.3-1.1l1.4 7.6a23 23 0 0 1-16 .7 10.4 10.4 0 0 1-6.4-7.7c-.4-2-.6-4.1-.6-6.2v-29Z" fill="#161326"/><path d="m251 337-16.9 13-1.5-3.9 13.5-10.7a351 351 0 0 1-13.5-10.7l1.5-3.9 16.9 13v3.3Zm-30.1-36a24 24 0 0 1 7.4 1.2l-1.2 5.1-2.2-.7c-1-.2-2.2-.4-3.6-.4-2.8 0-4.8.8-6 2.3a10.1 10.1 0 0 0-1.7 6.2v3h13.2v5h-13.2v28.5h-6.1v-36.6c0-4.3 1-7.7 3.2-10 2.2-2.4 5.6-3.5 10.2-3.5Zm-18.6 33.4c0 2.5-.4 5-1.2 7.3-.7 2-1.9 3.9-3.3 5.5a14.7 14.7 0 0 1-5.1 3.6c-2 .9-4.3 1.3-6.5 1.3-2.3 0-4.5-.5-6.5-1.3s-3.6-2-5-3.6a16.5 16.5 0 0 1-3.4-5.5c-.8-2.4-1.2-4.8-1.2-7.3 0-2.6.4-5 1.2-7.2.8-2.2 2-4 3.3-5.6 1.5-1.5 3.2-2.7 5.1-3.6 2-.8 4.2-1.2 6.5-1.2s4.5.4 6.5 1.2c2 .9 3.7 2 5 3.6 1.5 1.6 2.6 3.4 3.4 5.6a21 21 0 0 1 1.2 7.2Zm-6.4 0c0-3.8-.9-6.8-2.6-9a8.5 8.5 0 0 0-7.1-3.3c-3 0-5.3 1-7 3.3a14.3 14.3 0 0 0-2.7 9c0 3.8.9 6.8 2.6 9a8.5 8.5 0 0 0 7.1 3.4c3 0 5.4-1.1 7-3.4 1.8-2.2 2.7-5.2 2.7-9Zm-34 15.6L145 337v-3.2l16.9-13 1.5 4-13.5 10.6 13.5 10.7-1.5 3.9Z" fill="#5AB783"/><path d="M377 334.2a21 21 0 0 1-1.2 7.3c-.8 2.1-2 4-3.5 5.7a15.6 15.6 0 0 1-5.7 3.5c-2.3.9-4.8 1.3-7.7 1.3a45.7 45.7 0 0 1-11.1-1.2l-3-.7v-47.5l9.8-1.5V318a17.9 17.9 0 0 1 13.8-.2c1.9.8 3.4 2 4.7 3.5a16 16 0 0 1 3 5.6 25 25 0 0 1 .9 7.3Zm-10-.3c0-6.2-2.3-9.3-7-9.3a11.7 11.7 0 0 0-5.4 1.4v17.5a20.4 20.4 0 0 0 4.3.3c2.6 0 4.7-.9 6-2.7 1.4-1.8 2-4.2 2-7.2Zm-60.8.5c0-3 .5-5.6 1.4-7.9a15.5 15.5 0 0 1 9-9c2-.8 4.1-1.2 6.2-1.2 5 0 8.8 1.5 11.7 4.4 2.8 3 4.3 7.3 4.3 13l-.1 1.9-.1 1.7h-22.3c.2 2 1.2 3.7 2.8 4.8 1.7 1.1 4 1.7 6.7 1.7a29.1 29.1 0 0 0 9.6-1.7l1.3 7.8c-.7.4-1.4.6-2 .8a27.8 27.8 0 0 1-6.5 1.2l-3.7.2c-3.1 0-5.8-.5-8.1-1.4a14.6 14.6 0 0 1-9.1-9.3c-.8-2.2-1.1-4.6-1.1-7Zm23-3.6c0-.9-.1-1.6-.4-2.4a6 6 0 0 0-3-3.6c-.9-.4-1.9-.6-2.9-.6s-2 .2-2.8.6a5.9 5.9 0 0 0-3.2 3.5c-.3.8-.5 1.6-.6 2.5h13Zm-51.1.9a292.6 292.6 0 0 1-6 19.5h-7.6a115.4 115.4 0 0 1-5.5-14.7 542.4 542.4 0 0 1-6-19.3h10.3a1019 1019 0 0 0 5.6 22.2 274.6 274.6 0 0 0 3.2-11.6l1.5-5.6 1.2-5h7.1a214.4 214.4 0 0 0 2.6 10.6 361 361 0 0 0 3.1 11.6c1.7-5.6 3.2-11.4 4.5-17.1l1.1-5.1h10.2a509.6 509.6 0 0 1-9 27.5c-.9 2.5-1.7 4.7-2.5 6.5h-7.7a1541.3 1541.3 0 0 1-6.1-19.5Z" fill="#161326"/></g></svg>
