<svg xmlns="http://www.w3.org/2000/svg" width="1333.333" height="416" version="1.0" viewBox="0 0 1000 312"><defs/><path d="M460.5 28.5c-29.1 11.8-64.8 26.3-79.2 32.1L355 71.2V107h4.3c8.9 0 8.6.4 8.9-14.2l.3-12.9L434 53.4c36-14.5 66.3-26.7 67.3-27 1.6-.5 1.7.8 1.7 18.4v19l19.3.6c10.5.3 34.8.9 53.8 1.2l34.7.6.4 19.9c.2 10.9.6 20.1 1 20.4.3.3 3.3.3 6.7-.1l6.1-.7-.6-26.1c-.4-14.3-.7-26.2-.8-26.2 0-.1-18.3-.5-40.6-.8-22.3-.4-46.5-.9-53.7-1.2l-13.3-.6V28.9C516 12 515.7 7 514.8 7c-.7.1-25.1 9.7-54.3 21.5zM17 164.5V202h14v-23.8l15.8-.4c17.1-.5 21.3-1.5 25-6.2 4.8-6.2 5.5-26.1 1.3-35-3.8-7.8-10.9-9.5-38.8-9.6H17v37.5zm42.3-22.7c1.9 2 2.2 3.3 2.2 10.7 0 7.5-.3 8.7-2.3 10.7-2.1 2.1-3.3 2.3-15.2 2.7l-13 .3v-27.4l13 .4c11.9.3 13.2.6 15.3 2.6zM98.3 128.4c-7.1 1.8-10.2 4-12.4 9.1-3.6 8.1-5 30.8-2.8 44.5 1.5 9.6 4.2 14.5 9.3 17 10.1 4.8 35.5 4.7 45.5-.2 6.6-3.3 8.7-8.1 10.2-23.1.8-8.6.8-14.7 0-22.9-1.4-14.6-3.6-19.3-10.6-22.8-4.5-2.3-6.3-2.5-19.5-2.7-9.4-.2-16.3.2-19.7 1.1zm29.7 11.9c5.4 1.8 6.2 5.7 5.8 26.2-.2 10.7-.8 17.8-1.5 19.1-2.1 3.7-6.2 4.6-18.7 4.2-14.9-.4-15.4-.8-16.8-13.6-1.1-10.3.3-31.4 2.2-33.7.7-.8 2.7-1.9 4.4-2.4 4.5-1.3 20.5-1.2 24.6.2zM159 164.5V202h49v-13h-35v-62h-14v37.5zM225.7 128c-10.9 2.8-13.2 6.4-13.2 20.5 0 17.1 3.1 19.5 27.1 21.5 8 .6 13.6 1.6 15 2.5 4.9 3.2 3.9 15.6-1.4 17.6-1.5.6-7.6.9-13.5.7-12.3-.3-13.1-.8-14.3-8.4l-.6-4.4H212v5.7c0 7.5 2.9 13.5 7.6 15.8 8.3 3.9 34.4 4 43.7.2 5.8-2.5 8.1-8 8.1-19.7.1-16-3.3-19.3-22-21.1-22.7-2.2-22.4-2-23.1-9.5-.4-4.3-.2-5.5 2-7.9 2.3-2.7 2.9-2.9 11.8-3.2 11.7-.5 14 .5 15.3 6.5l1 4.2H270v-4.3c0-6.3-3.6-12.8-8.5-15.2-3.3-1.6-6.4-2-18-2.2-7.7-.1-15.7.2-17.8.7zM282 164.5V202h14v-32h3.4c3.2 0 4.3 1.1 16.8 15.9l13.3 16h9.3l9.4.1-9.8-11.3c-5.5-6.1-12.9-14.7-16.6-19-3.8-4.2-6.8-7.9-6.8-8.1 0-.2 6.5-8.2 14.5-17.8 7.9-9.5 14.5-17.6 14.5-18.1 0-.4-3.7-.7-8.3-.7h-8.3L315 142.5c-11.4 14.1-12.8 15.4-15.7 15.5H296v-31h-14v37.5zM354 164.5V202h14v-75h-14v37.5zM410 164.5V202h14v-31h33v-12h-33v-20h35v-12h-49v37.5zM468 164.4V202h14v-25h12.4c11.5 0 12.7.2 15.1 2.2 3 2.7 4.4 7.8 4.5 16.5v6.3h14.2l-.3-11.3c-.5-13.1-1.6-15.8-8.2-18.6l-4.2-1.8 3.1-.7c6.8-1.5 9.5-7.2 9.5-19.8 0-11.8-2.2-16.7-8.9-20-4.4-2.1-6.2-2.3-27.9-2.6l-23.3-.4v37.6zm43.7-23.1c1.4 1.4 1.8 3.4 1.8 10.2 0 7.5-.3 8.7-2.3 10.7-2.1 2.1-3.3 2.3-15.7 2.6l-13.5.4v-26.4l14 .4c11.7.2 14.2.6 15.7 2.1zM552.3 128.4c-7.1 1.8-10.2 4-12.4 9.1-3.6 8.1-5 30.8-2.8 44.5 1.5 9.6 4.2 14.5 9.3 17 10.1 4.8 35.5 4.7 45.5-.2 6.6-3.3 8.7-8.1 10.2-23.1.8-8.6.8-14.7 0-22.9-1.4-14.6-3.6-19.3-10.6-22.8-4.5-2.3-6.3-2.5-19.5-2.7-9.4-.2-16.3.2-19.7 1.1zm29.7 11.9c5.4 1.8 6.2 5.7 5.8 26.2-.2 10.7-.8 17.8-1.5 19.1-2.1 3.7-6.2 4.6-18.7 4.2-14.9-.4-15.4-.8-16.8-13.6-1.1-10.3.3-31.4 2.2-33.7.7-.8 2.7-1.9 4.4-2.4 4.5-1.3 20.5-1.2 24.6.2zM613 164.5V202h14.2l-.4-31c-.1-17 0-30.6.3-30.2.4.4 2.8 5.4 5.3 11.2 2.6 5.8 9.4 19.3 15 30l10.2 19.5 12.2.3 12.2.3V127h-14v62.3l-15.7-31.1-15.7-31.2H613v37.5zM689 133.5v6.5h21v62h14v-62h23.1l-.3-6.3-.3-6.2-28.7-.3-28.8-.2v6.5zM777 164.5V202h52.1l-.3-5.8-.3-5.7-18.7-.3-18.8-.2v-21h35v-10l-17.2-.2-17.3-.3-.3-9.8-.3-9.7H828v-12h-51v37.5zM840 164.5V202h14.2l-.4-31c-.1-17 0-30.6.3-30.2.4.4 2.8 5.4 5.3 11.2 2.6 5.8 9.4 19.3 15 30l10.2 19.5 12.2.3 12.2.3V127h-14v62.3l-15.7-31.1-15.7-31.2H840v37.5zM922 164.4V202h21.8c38.4 0 40.9-2.2 41.9-35.6.5-14.2.3-18-1.2-22.9-2-7-7.1-12.7-13-14.5-2.4-.7-13.2-1.4-26.7-1.7l-22.8-.5v37.6zm44.7-22.8c4.2 3.2 5.5 9.4 5 25.4-.6 21.4-2.2 23-23.2 23H936v-51.2l13.9.4c12.3.3 14.3.6 16.8 2.4zM747 173v6h25v-12h-25v6zM355 234.9v11.9l3.3 1.1c1.7.6 44.9 13.2 95.9 28l92.7 27 39-22.7 39.1-22.6v-34.9l-4.6.7c-2.6.3-5.5.6-6.5.6-1.7 0-1.9 1.2-2.1 13.1l-.3 13.1-32.5 18.9c-17.9 10.4-33.4 18.9-34.5 18.9-1.1 0-41.1-11.4-89-25.4l-87-25.3-.3-7.2-.3-7.1H355v11.9z"/></svg>