<svg width="296" height="84" viewBox="0 0 296 84" fill="none" xmlns="http://www.w3.org/2000/svg">
<g clip-path="url(#clip0_9_149)">
<path d="M101.774 28.5295V39.3949H99.8332V12.4221H106.801C109.982 12.4221 112.368 13.121 113.959 14.4871C115.581 15.885 116.377 17.8548 116.377 20.4281C116.377 21.6036 116.154 22.6838 115.709 23.7005C115.263 24.7171 114.627 25.5431 113.8 26.2738C112.972 27.0045 111.954 27.5446 110.777 27.9576C109.6 28.3707 108.264 28.5613 106.769 28.5613H101.774V28.5295ZM101.774 26.941H106.801C108.009 26.941 109.059 26.7821 110.014 26.4327C110.968 26.115 111.764 25.6384 112.4 25.0666C113.068 24.4947 113.545 23.7958 113.895 23.0015C114.245 22.2073 114.404 21.3495 114.404 20.3964C114.404 18.3313 113.768 16.7428 112.495 15.5991C111.223 14.4871 109.314 13.9153 106.769 13.9153H101.742V26.941H101.774Z" fill="black"/>
<path d="M145.041 25.8926C145.041 27.9894 144.723 29.8638 144.119 31.5794C143.482 33.2632 142.623 34.7246 141.478 35.9319C140.333 37.1392 138.997 38.0605 137.406 38.7277C135.815 39.3948 134.065 39.7125 132.157 39.7125C130.248 39.7125 128.53 39.3948 126.939 38.7277C125.348 38.0605 124.012 37.1392 122.867 35.9319C121.721 34.7246 120.862 33.295 120.226 31.5794C119.59 29.8956 119.272 27.9894 119.272 25.8926C119.272 23.8275 119.59 21.9213 120.226 20.2375C120.862 18.5537 121.721 17.0923 122.867 15.885C124.012 14.6777 125.348 13.7564 126.939 13.0892C128.53 12.4221 130.248 12.1044 132.157 12.1044C134.065 12.1044 135.815 12.4221 137.406 13.0892C138.997 13.7564 140.333 14.6777 141.478 15.885C142.623 17.0923 143.482 18.5537 144.119 20.2375C144.723 21.9213 145.041 23.8275 145.041 25.8926ZM143.005 25.8926C143.005 24.0181 142.751 22.3343 142.21 20.8094C141.701 19.3162 140.937 18.0454 140.015 16.997C139.06 15.9485 137.915 15.1543 136.579 14.6142C135.243 14.0741 133.747 13.7882 132.125 13.7882C130.534 13.7882 129.039 14.0741 127.734 14.6142C126.398 15.1543 125.253 15.9485 124.298 16.997C123.344 18.0454 122.58 19.3162 122.071 20.8094C121.531 22.3026 121.276 23.9864 121.276 25.8926C121.276 27.7988 121.531 29.4826 122.071 30.9758C122.612 32.469 123.344 33.7398 124.298 34.7882C125.253 35.8366 126.398 36.6308 127.734 37.1709C129.071 37.711 130.534 37.997 132.125 37.997C133.747 37.997 135.243 37.711 136.579 37.1709C137.915 36.6308 139.06 35.8366 140.015 34.7882C140.969 33.7398 141.701 32.469 142.21 30.9758C142.751 29.4826 143.005 27.7988 143.005 25.8926Z" fill="black"/>
<path d="M152.39 37.711H165.212V39.3631H150.45V12.4221H152.39V37.711Z" fill="black"/>
<path d="M182.073 15.6944C181.946 15.9168 181.787 16.0121 181.564 16.0121C181.405 16.0121 181.182 15.885 180.928 15.6626C180.673 15.4402 180.323 15.1543 179.878 14.8684C179.433 14.5824 178.86 14.3283 178.192 14.0741C177.524 13.82 176.696 13.7246 175.71 13.7246C174.724 13.7246 173.865 13.8517 173.101 14.1377C172.37 14.4236 171.733 14.8048 171.224 15.2814C170.715 15.7579 170.334 16.3298 170.079 16.9652C169.825 17.6006 169.697 18.2678 169.697 18.9667C169.697 19.888 169.888 20.6505 170.27 21.2224C170.652 21.7942 171.161 22.3343 171.797 22.7473C172.433 23.1603 173.165 23.5098 173.96 23.7957C174.756 24.0817 175.615 24.3676 176.442 24.6535C177.301 24.9395 178.128 25.2572 178.923 25.5749C179.719 25.9243 180.451 26.3374 181.087 26.8457C181.723 27.354 182.232 27.9894 182.614 28.7201C182.996 29.4508 183.187 30.3721 183.187 31.4841C183.187 32.6278 182.996 33.6762 182.614 34.6611C182.232 35.646 181.66 36.5355 180.928 37.2662C180.196 37.997 179.273 38.6006 178.224 39.0136C177.174 39.4266 175.933 39.649 174.565 39.649C172.783 39.649 171.256 39.3313 169.952 38.6959C168.679 38.0605 167.534 37.2027 166.58 36.1225L167.12 35.2965C167.279 35.1059 167.439 35.0106 167.661 35.0106C167.789 35.0106 167.916 35.0741 168.107 35.233C168.298 35.3918 168.488 35.5824 168.743 35.8048C168.997 36.0272 169.316 36.2814 169.666 36.5355C170.016 36.7897 170.429 37.0439 170.906 37.2662C171.384 37.4886 171.924 37.6793 172.529 37.8381C173.133 37.997 173.833 38.0605 174.597 38.0605C175.678 38.0605 176.633 37.9017 177.46 37.584C178.287 37.2663 179.019 36.8215 179.592 36.2496C180.164 35.6777 180.61 35.0106 180.928 34.2481C181.246 33.4856 181.373 32.6596 181.373 31.77C181.373 30.8169 181.182 30.0227 180.801 29.419C180.419 28.8154 179.91 28.2753 179.273 27.8623C178.637 27.4493 177.905 27.0998 177.11 26.8139C176.315 26.528 175.456 26.2738 174.629 25.9879C173.801 25.702 172.942 25.416 172.147 25.0983C171.352 24.7806 170.62 24.3358 169.984 23.8275C169.347 23.3192 168.838 22.6838 168.457 21.8895C168.107 21.1906 167.916 20.2375 167.916 19.062C167.916 18.1724 168.075 17.2829 168.425 16.4569C168.775 15.6308 169.284 14.8684 169.92 14.233C170.556 13.5976 171.415 13.0892 172.37 12.6762C173.356 12.295 174.469 12.1044 175.71 12.1044C177.11 12.1044 178.383 12.3268 179.496 12.7715C180.61 13.2163 181.628 13.8835 182.55 14.8048L182.073 15.6944Z" fill="black"/>
<path d="M190.536 24.8759H192.126C192.381 24.8759 192.572 24.8759 192.763 24.8441C192.954 24.8124 193.113 24.7806 193.24 24.7171C193.399 24.6535 193.526 24.59 193.654 24.4947C193.781 24.3994 193.908 24.3041 194.067 24.1452L204.979 12.9621C205.17 12.7715 205.361 12.6127 205.552 12.5174C205.711 12.4221 205.934 12.3903 206.188 12.3903H207.779L195.976 24.4947C195.721 24.7488 195.531 24.9395 195.34 25.0983C195.149 25.2254 194.958 25.3525 194.703 25.4478C194.958 25.5113 195.212 25.6384 195.435 25.7972C195.658 25.9561 195.849 26.1467 196.071 26.4009L208.511 39.3631H206.92C206.602 39.3631 206.347 39.2995 206.22 39.236C206.093 39.1407 205.934 39.0136 205.775 38.8547L194.353 27.1951C194.194 27.0681 194.067 26.941 193.94 26.8457C193.813 26.7503 193.685 26.655 193.558 26.5915C193.431 26.528 193.24 26.4644 193.017 26.4326C192.826 26.4009 192.572 26.4009 192.254 26.4009H190.504V39.3948H188.563V12.3903H190.504V24.8759H190.536Z" fill="black"/>
<path d="M214.905 39.3949H212.933V12.4221H214.905V39.3949Z" fill="black"/>
<path d="M117.236 45.2088V49.2753H104.987V57.4402H115.327V61.5386H104.987V72.7534H99.8014V45.177H117.236V45.2088Z" fill="black"/>
<path d="M125.603 61.9834V72.7534H120.481V45.177H128.911C130.788 45.177 132.411 45.3676 133.747 45.7489C135.083 46.1301 136.197 46.6702 137.056 47.3691C137.915 48.0681 138.551 48.8941 138.933 49.879C139.315 50.8638 139.537 51.9122 139.537 53.0877C139.537 54.0091 139.41 54.8986 139.124 55.7247C138.837 56.5507 138.456 57.3132 137.947 57.9803C137.438 58.6475 136.801 59.2511 136.038 59.7594C135.274 60.2678 134.415 60.6808 133.461 60.9667C134.097 61.348 134.67 61.8563 135.147 62.5552L142.051 72.7216H137.438C136.992 72.7216 136.61 72.6263 136.292 72.4675C135.974 72.3086 135.72 72.0227 135.497 71.705L129.707 62.8729C129.484 62.5552 129.261 62.3011 129.007 62.174C128.752 62.0469 128.371 61.9516 127.862 61.9516H125.603V61.9834ZM125.603 58.298H128.816C129.77 58.298 130.629 58.1709 131.361 57.9486C132.093 57.6944 132.665 57.3767 133.143 56.9637C133.62 56.5507 133.97 56.0424 134.193 55.4387C134.415 54.8669 134.543 54.1997 134.543 53.5008C134.543 52.1029 134.065 51.0227 133.143 50.292C132.22 49.5295 130.82 49.18 128.911 49.18H125.635V58.298H125.603Z" fill="black"/>
<path d="M169.92 58.9652C169.92 60.9985 169.57 62.8729 168.902 64.5885C168.234 66.3041 167.279 67.7973 166.071 69.0681C164.862 70.3389 163.366 71.3237 161.648 72.0227C159.93 72.7216 158.021 73.0711 155.922 73.0711C153.822 73.0711 151.913 72.7216 150.195 72.0227C148.477 71.3237 146.982 70.3389 145.773 69.0681C144.532 67.7973 143.578 66.3358 142.91 64.5885C142.242 62.8729 141.892 60.9985 141.892 58.9652C141.892 56.9319 142.242 55.0575 142.91 53.3419C143.578 51.6263 144.532 50.1331 145.773 48.8623C147.014 47.5915 148.477 46.6384 150.195 45.9077C151.913 45.177 153.822 44.8593 155.922 44.8593C158.021 44.8593 159.899 45.2088 161.617 45.9395C163.334 46.6702 164.798 47.6233 166.039 48.8941C167.248 50.1331 168.202 51.6263 168.87 53.3419C169.538 55.0575 169.92 56.9637 169.92 58.9652ZM164.639 58.9652C164.639 57.4402 164.448 56.1059 164.034 54.8986C163.621 53.6914 163.048 52.6747 162.316 51.8487C161.553 51.0227 160.662 50.3555 159.58 49.9107C158.499 49.4659 157.29 49.2435 155.954 49.2435C154.617 49.2435 153.377 49.4659 152.295 49.9107C151.213 50.3555 150.291 50.9909 149.527 51.8487C148.764 52.7065 148.191 53.6914 147.777 54.8986C147.364 56.1059 147.173 57.472 147.173 58.9652C147.173 60.4584 147.364 61.8245 147.777 63.0317C148.191 64.239 148.764 65.2556 149.527 66.0817C150.291 66.9077 151.213 67.5431 152.295 67.9879C153.377 68.4327 154.586 68.655 155.954 68.655C157.29 68.655 158.499 68.4327 159.58 67.9879C160.662 67.5431 161.553 66.9077 162.316 66.0817C163.08 65.2556 163.653 64.239 164.034 63.0317C164.416 61.8245 164.639 60.4901 164.639 58.9652Z" fill="black"/>
<path d="M176.251 45.2405C176.41 45.2723 176.537 45.304 176.665 45.3676C176.792 45.4311 176.919 45.4946 177.015 45.6217C177.142 45.717 177.269 45.8759 177.396 46.0665L191.872 64.4931C191.808 64.0483 191.776 63.6036 191.776 63.1906C191.745 62.7775 191.745 62.3645 191.745 61.9833V45.2405H196.262V72.8169H193.622C193.208 72.8169 192.89 72.7533 192.604 72.6263C192.317 72.4992 192.063 72.2768 191.808 71.9273L177.365 53.5642C177.396 53.9772 177.428 54.3903 177.46 54.7715C177.492 55.1527 177.492 55.534 177.492 55.8517V72.7851H172.974V45.2087H175.678C175.933 45.2087 176.124 45.2087 176.251 45.2405Z" fill="black"/>
<path d="M220.346 45.2087V49.4341H212.042V72.7851H206.92V49.4341H198.585V45.2087H220.346Z" fill="black"/>
<path d="M240.07 45.2088V49.2753H227.822V56.9319H237.462V60.8714H227.822V68.6551H240.07V72.7534H222.668V45.177H240.07V45.2088Z" fill="black"/>
<path d="M246.847 45.2405C247.006 45.2723 247.133 45.304 247.261 45.3676C247.388 45.4311 247.515 45.4946 247.61 45.6217C247.738 45.717 247.865 45.8759 247.992 46.0665L262.468 64.4931C262.404 64.0483 262.372 63.6036 262.372 63.1906C262.341 62.7775 262.341 62.3645 262.341 61.9833V45.2405H266.858V72.8169H264.218C263.804 72.8169 263.486 72.7533 263.2 72.6263C262.913 72.4992 262.659 72.2768 262.404 71.9273L247.96 53.5642C247.992 53.9772 248.024 54.3903 248.056 54.7715C248.088 55.1527 248.088 55.534 248.088 55.8517V72.7851H243.57V45.2087H246.274C246.497 45.2087 246.688 45.2087 246.847 45.2405Z" fill="black"/>
<path d="M296 58.9652C296 60.9985 295.65 62.8411 294.982 64.5249C294.314 66.2087 293.359 67.6702 292.15 68.8774C290.942 70.0847 289.446 71.0378 287.728 71.705C286.01 72.3721 284.101 72.7216 282.034 72.7216H271.503V45.1452H282.034C284.133 45.1452 286.01 45.4947 287.728 46.1618C289.446 46.829 290.91 47.7821 292.15 48.9894C293.359 50.1966 294.314 51.6581 294.982 53.3419C295.65 55.0892 296 56.9637 296 58.9652ZM290.751 58.9652C290.751 57.4402 290.56 56.1059 290.146 54.8986C289.733 53.6913 289.16 52.6747 288.396 51.8487C287.633 51.0227 286.742 50.3873 285.66 49.9425C284.579 49.4977 283.37 49.2753 282.034 49.2753H276.657V68.6868H282.034C283.37 68.6868 284.61 68.4644 285.66 68.0196C286.742 67.5749 287.633 66.9395 288.396 66.1134C289.16 65.2874 289.733 64.2708 290.146 63.0635C290.528 61.8562 290.751 60.4901 290.751 58.9652Z" fill="black"/>
<path d="M73.5864 46.6702H66.5236C66.1737 46.6702 65.8873 46.3843 65.8873 46.0348V38.9819C65.8873 38.6324 66.1737 38.3465 66.5236 38.3465H73.5864C73.9363 38.3465 74.2227 38.6324 74.2227 38.9819V46.0348C74.2227 46.3843 73.9363 46.6702 73.5864 46.6702Z" fill="#EF516D"/>
<path d="M28.2193 36.9803H10.9759C10.626 36.9803 10.3397 36.6944 10.3397 36.3449V19.1256C10.3397 18.7761 10.626 18.4902 10.9759 18.4902H28.2193C28.5692 18.4902 28.8556 18.7761 28.8556 19.1256V36.3449C28.8556 36.6944 28.5692 36.9803 28.2193 36.9803Z" fill="#EF516D"/>
<path d="M19.5976 28.9425C21.1965 28.9425 22.4927 27.6481 22.4927 26.0514C22.4927 24.4547 21.1965 23.1604 19.5976 23.1604C17.9986 23.1604 16.7025 24.4547 16.7025 26.0514C16.7025 27.6481 17.9986 28.9425 19.5976 28.9425Z" fill="white"/>
<path d="M19.5976 29.5779C16.9252 29.5779 14.7618 30.8169 14.7618 32.3419H24.4334C24.4334 30.8169 22.27 29.5779 19.5976 29.5779Z" fill="white"/>
<path d="M39.0361 61.9516H27.6466C27.2966 61.9516 27.0103 61.6656 27.0103 61.3162V49.9425C27.0103 49.593 27.2966 49.3071 27.6466 49.3071H39.0361C39.3861 49.3071 39.6724 49.593 39.6724 49.9425V61.3162C39.6724 61.6656 39.3861 61.9516 39.0361 61.9516Z" fill="#EF516D"/>
<path d="M33.3414 56.4554C34.4308 56.4554 35.3139 55.5735 35.3139 54.4856C35.3139 53.3977 34.4308 52.5159 33.3414 52.5159C32.252 52.5159 31.3689 53.3977 31.3689 54.4856C31.3689 55.5735 32.252 56.4554 33.3414 56.4554Z" fill="white"/>
<path d="M33.3413 56.8683C31.5279 56.8683 30.0327 57.7261 30.0327 58.7746H36.65C36.65 57.7261 35.1548 56.8683 33.3413 56.8683Z" fill="white"/>
<path d="M72.5047 75.0091H49.0576C48.7077 75.0091 48.4213 74.7231 48.4213 74.3736V50.9591C48.4213 50.6097 48.7077 50.3237 49.0576 50.3237H72.5047C72.8547 50.3237 73.141 50.6097 73.141 50.9591V74.3736C73.141 74.7549 72.8547 75.0091 72.5047 75.0091Z" fill="#EF516D"/>
<path d="M60.7653 64.2708C62.8913 64.2708 64.6148 62.5497 64.6148 60.4266C64.6148 58.3036 62.8913 56.5825 60.7653 56.5825C58.6393 56.5825 56.9158 58.3036 56.9158 60.4266C56.9158 62.5497 58.6393 64.2708 60.7653 64.2708Z" fill="white"/>
<path d="M60.7653 65.1286C57.2021 65.1286 54.307 66.7806 54.307 68.8457H67.2236C67.2236 66.7806 64.3285 65.1286 60.7653 65.1286Z" fill="white"/>
<path d="M60.8607 37.997H46.4488C46.0989 37.997 45.8126 37.7111 45.8126 37.3616V22.9698C45.8126 22.6203 46.0989 22.3344 46.4488 22.3344H60.8607C61.2107 22.3344 61.497 22.6203 61.497 22.9698V37.3616C61.497 37.7111 61.2107 37.997 60.8607 37.997Z" fill="#EF516D"/>
<path d="M53.6706 31.1982C55.0235 31.1982 56.1203 30.1029 56.1203 28.7519C56.1203 27.4008 55.0235 26.3056 53.6706 26.3056C52.3177 26.3056 51.2209 27.4008 51.2209 28.7519C51.2209 30.1029 52.3177 31.1982 53.6706 31.1982Z" fill="white"/>
<path d="M53.6706 31.7383C51.4118 31.7383 49.5666 32.7867 49.5666 34.0892H57.7747C57.7747 32.7867 55.9294 31.7383 53.6706 31.7383Z" fill="white"/>
<path d="M76.1634 21.9531H67.8599C67.5099 21.9531 67.2236 21.6672 67.2236 21.3177V13.0257C67.2236 12.6762 67.5099 12.3903 67.8599 12.3903H76.1634C76.5133 12.3903 76.7997 12.6762 76.7997 13.0257V21.3177C76.7997 21.6672 76.5133 21.9531 76.1634 21.9531Z" fill="#EF516D"/>
<path d="M12.1849 53.3101H5.15392C4.80397 53.3101 4.51764 53.0242 4.51764 52.6747V45.6218C4.51764 45.2723 4.80397 44.9864 5.15392 44.9864H12.2167C12.5666 44.9864 12.853 45.2723 12.853 45.6218V52.6747C12.8212 53.0242 12.5666 53.3101 12.1849 53.3101Z" fill="#EF516D"/>
<path d="M40.3405 32.2466H35.0275C34.6776 32.2466 34.3912 31.9606 34.3912 31.6112V26.3056C34.3912 25.9561 34.6776 25.6702 35.0275 25.6702H40.3405C40.6905 25.6702 40.9768 25.9561 40.9768 26.3056V31.6112C40.9768 31.9606 40.6905 32.2466 40.3405 32.2466Z" fill="#EF516D"/>
<path d="M40.8495 77.4872H35.5366C35.1866 77.4872 34.9003 77.2012 34.9003 76.8518V71.5462C34.9003 71.1967 35.1866 70.9108 35.5366 70.9108H40.8495C41.1995 70.9108 41.4858 71.1967 41.4858 71.5462V76.8518C41.4858 77.2012 41.1995 77.4872 40.8495 77.4872Z" fill="#EF516D"/>
<path d="M51.0619 17.7912H45.7489C45.3989 17.7912 45.1126 17.5053 45.1126 17.1558V11.8184C45.1126 11.469 45.3989 11.183 45.7489 11.183H51.0619C51.4118 11.183 51.6982 11.469 51.6982 11.8184V17.1558C51.6982 17.5053 51.4118 17.7912 51.0619 17.7912Z" fill="#EF516D"/>
<path d="M31.5279 11.9137H26.215C25.865 11.9137 25.5787 11.6278 25.5787 11.2783V5.97274C25.5787 5.62327 25.865 5.33734 26.215 5.33734H31.5279C31.8779 5.33734 32.1642 5.62327 32.1642 5.97274V11.2783C32.1642 11.6278 31.8779 11.9137 31.5279 11.9137Z" fill="#EF516D"/>
<path d="M83.2579 65.2239H77.9449C77.595 65.2239 77.3087 64.938 77.3087 64.5885V59.2829C77.3087 58.9334 77.595 58.6475 77.9449 58.6475H83.2579C83.6079 58.6475 83.8942 58.9334 83.8942 59.2829V64.5885C83.8942 64.938 83.6079 65.2239 83.2579 65.2239Z" fill="#EF516D"/>
<path d="M56.4385 47.4327H51.1255C50.7756 47.4327 50.4893 47.1467 50.4893 46.7973V41.4917C50.4893 41.1422 50.7756 40.8563 51.1255 40.8563H56.4385C56.7885 40.8563 57.0748 41.1422 57.0748 41.4917V46.7973C57.0748 47.1785 56.7885 47.4327 56.4385 47.4327Z" fill="#EF516D"/>
<path d="M5.94927 27.7352H0.636285C0.286328 27.7352 0 27.4493 0 27.0998V21.7942C0 21.4448 0.286328 21.1588 0.636285 21.1588H5.94927C6.29923 21.1588 6.58555 21.4448 6.58555 21.7942V27.0998C6.58555 27.4493 6.29923 27.7352 5.94927 27.7352Z" fill="#EF516D"/>
<path d="M41.3904 46.5431H33.0868C32.7369 46.5431 32.4506 46.2572 32.4506 45.9077V37.6157C32.4506 37.2663 32.7369 36.9803 33.0868 36.9803H41.3904C41.7403 36.9803 42.0267 37.2663 42.0267 37.6157V45.9077C42.0267 46.2572 41.7403 46.5431 41.3904 46.5431Z" fill="#EF516D"/>
<path d="M21.061 56.3918H18.1659C17.816 56.3918 17.5297 56.1059 17.5297 55.7564V52.8654C17.5297 52.5159 17.816 52.23 18.1659 52.23H21.061C21.411 52.23 21.6973 52.5159 21.6973 52.8654V55.7564C21.6973 56.1059 21.411 56.3918 21.061 56.3918Z" fill="#EF516D"/>
<path d="M67.3508 84H64.4557C64.1058 84 63.8195 83.7141 63.8195 83.3646V80.4735C63.8195 80.1241 64.1058 79.8381 64.4557 79.8381H67.3508C67.7008 79.8381 67.9871 80.1241 67.9871 80.4735V83.3646C67.9871 83.7141 67.7008 84 67.3508 84Z" fill="#EF516D"/>
<path d="M79.9492 32.2466H77.0541C76.7042 32.2466 76.4178 31.9607 76.4178 31.6112V28.7201C76.4178 28.3706 76.7042 28.0847 77.0541 28.0847H79.9492C80.2992 28.0847 80.5855 28.3706 80.5855 28.7201V31.6112C80.5855 31.9607 80.2992 32.2466 79.9492 32.2466Z" fill="#EF516D"/>
<path d="M38.6544 18.1407H35.7593C35.4093 18.1407 35.123 17.8548 35.123 17.5053V14.6142C35.123 14.2648 35.4093 13.9788 35.7593 13.9788H38.6544C39.0043 13.9788 39.2907 14.2648 39.2907 14.6142V17.5053C39.2907 17.8548 39.0043 18.1407 38.6544 18.1407Z" fill="#EF516D"/>
<path d="M12.1849 59.8865H9.32159C8.97163 59.8865 8.6853 59.6006 8.6853 59.2511V56.3601C8.6853 56.0106 8.97163 55.7247 9.32159 55.7247H12.2167C12.5666 55.7247 12.853 56.0106 12.853 56.3601V59.2511C12.8212 59.6006 12.5666 59.8865 12.1849 59.8865Z" fill="#EF516D"/>
<path d="M5.94929 40.888H3.05419C2.70424 40.888 2.41791 40.6021 2.41791 40.2526V37.3616C2.41791 37.0121 2.70424 36.7262 3.05419 36.7262H5.94929C6.29925 36.7262 6.58558 37.0121 6.58558 37.3616V40.2526C6.58558 40.6021 6.29925 40.888 5.94929 40.888Z" fill="#EF516D"/>
<path d="M16.3525 14.4871H13.4575C13.1075 14.4871 12.8212 14.2012 12.8212 13.8517V10.9607C12.8212 10.6112 13.1075 10.3253 13.4575 10.3253H16.3525C16.7025 10.3253 16.9888 10.6112 16.9888 10.9607V13.8517C16.9888 14.2012 16.7025 14.4871 16.3525 14.4871Z" fill="#EF516D"/>
<path d="M39.6406 4.16188H36.7455C36.3955 4.16188 36.1092 3.87595 36.1092 3.52648V0.635401C36.1092 0.28593 36.3955 0 36.7455 0H39.6406C39.9905 0 40.2769 0.28593 40.2769 0.635401V3.52648C40.2769 3.87595 39.9905 4.16188 39.6406 4.16188Z" fill="#EF516D"/>
<path d="M45.5263 67.3208H42.6312C42.2812 67.3208 41.9949 67.0348 41.9949 66.6854V63.7943C41.9949 63.4448 42.2812 63.1589 42.6312 63.1589H45.5263C45.8762 63.1589 46.1625 63.4448 46.1625 63.7943V66.6854C46.1625 67.0348 45.8762 67.3208 45.5263 67.3208Z" fill="#EF516D"/>
<path d="M69.8323 33.0408H66.9372C66.5872 33.0408 66.3009 32.7549 66.3009 32.4054V29.5144C66.3009 29.1649 66.5872 28.879 66.9372 28.879H69.8323C70.1822 28.879 70.4686 29.1649 70.4686 29.5144V32.4054C70.4686 32.7549 70.1822 33.0408 69.8323 33.0408Z" fill="#EF516D"/>
<path d="M19.6613 69.3858H16.7662C16.4162 69.3858 16.1299 69.0998 16.1299 68.7504V65.8593C16.1299 65.5098 16.4162 65.2239 16.7662 65.2239H19.6613C20.0112 65.2239 20.2976 65.5098 20.2976 65.8593V68.7504C20.2976 69.0998 20.0112 69.3858 19.6613 69.3858Z" fill="#EF516D"/>
<path d="M54.0206 82.9516H51.1255C50.7756 82.9516 50.4893 82.6656 50.4893 82.3161V79.4251C50.4893 79.0756 50.7756 78.7897 51.1255 78.7897H54.0206C54.3706 78.7897 54.6569 79.0756 54.6569 79.4251V82.3161C54.6569 82.6656 54.3706 82.9516 54.0206 82.9516Z" fill="#EF516D"/>
<path d="M61.497 18.0772H58.6019C58.2519 18.0772 57.9656 17.7913 57.9656 17.4418V14.5825C57.9656 14.233 58.2519 13.9471 58.6019 13.9471H61.497C61.8469 13.9471 62.1332 14.233 62.1332 14.5825V17.4736C62.1332 17.7913 61.8469 18.0772 61.497 18.0772Z" fill="#EF516D"/>
<path d="M24.3379 47.4327H19.025C18.675 47.4327 18.3887 47.1467 18.3887 46.7973V41.4917C18.3887 41.1422 18.675 40.8563 19.025 40.8563H24.3379C24.6879 40.8563 24.9742 41.1422 24.9742 41.4917V46.7973C24.9742 47.1785 24.6879 47.4327 24.3379 47.4327Z" fill="#EF516D"/>
<path d="M31.7825 69.8941H28.9192C28.5692 69.8941 28.2829 69.6082 28.2829 69.2587V66.3994C28.2829 66.05 28.5692 65.764 28.9192 65.764H31.8143C32.1642 65.764 32.4506 66.05 32.4506 66.3994V69.2905C32.4188 69.64 32.1642 69.8941 31.7825 69.8941Z" fill="#EF516D"/>
<path d="M79.9492 54.5809H77.0541C76.7042 54.5809 76.4178 54.295 76.4178 53.9455V51.0545C76.4178 50.705 76.7042 50.4191 77.0541 50.4191H79.9492C80.2992 50.4191 80.5855 50.705 80.5855 51.0545V53.9455C80.5855 54.295 80.2992 54.5809 79.9492 54.5809Z" fill="#EF516D"/>
</g>
<defs>
<clipPath id="clip0_9_149">
<rect width="296" height="84" fill="white"/>
</clipPath>
</defs>
</svg>
